<svg width="939" height="630" viewBox="0 0 939 630" fill="none" xmlns="http://www.w3.org/2000/svg">
<path d="M602.97 537.15C595.83 537.15 589.44 536.58 583.8 535.44C578.22 534.3 573.66 532.29 570.12 529.41C566.58 526.47 564.33 522.36 563.37 517.08C562.77 513.6 562.59 510.27 562.83 507.09C563.07 503.91 563.19 500.55 563.19 497.01C563.19 494.07 562.89 491.82 562.29 490.26C561.75 488.7 561.03 487.62 560.13 487.02C559.23 486.36 558.27 486.03 557.25 486.03C556.71 484.95 556.32 483.48 556.08 481.62C555.84 479.76 555.72 477.78 555.72 475.68C555.78 473.52 555.96 471.45 556.26 469.47C556.56 467.43 557.01 465.69 557.61 464.25C559.29 464.37 561.36 464.55 563.82 464.79C566.34 464.97 569.04 465.15 571.92 465.33C574.86 465.45 577.74 465.51 580.56 465.51C584.64 465.51 588.42 465.36 591.9 465.06C595.38 464.76 598.38 464.49 600.9 464.25C601.62 467.07 602.01 470.46 602.07 474.42C602.19 478.32 601.92 482.73 601.26 487.65V505.29H605.04V487.65C604.26 482.73 603.96 478.32 604.14 474.42C604.32 470.46 604.8 467.07 605.58 464.25C608.1 464.49 611.04 464.76 614.4 465.06C617.82 465.36 621.78 465.51 626.28 465.51C629.1 465.51 631.95 465.45 634.83 465.33C637.77 465.15 640.5 464.97 643.02 464.79C645.54 464.55 647.61 464.37 649.23 464.25C649.83 465.69 650.28 467.43 650.58 469.47C650.88 471.45 651.03 473.52 651.03 475.68C651.09 477.78 651 479.76 650.76 481.62C650.52 483.48 650.13 484.95 649.59 486.03C648.09 486.09 646.71 486.75 645.45 488.01C644.25 489.27 643.65 491.67 643.65 495.21C643.65 498.99 643.77 502.62 644.01 506.1C644.25 509.52 644.04 512.76 643.38 515.82C642.18 521.34 639.93 525.66 636.63 528.78C633.39 531.9 629.01 534.06 623.49 535.26C617.97 536.52 611.13 537.15 602.97 537.15ZM654.915 535.53C654.375 534.27 653.955 532.68 653.655 530.76C653.355 528.84 653.175 526.86 653.115 524.82C653.055 522.72 653.115 520.71 653.295 518.79C653.535 516.87 653.865 515.28 654.285 514.02C655.185 513.66 656.055 513.06 656.895 512.22C657.795 511.32 658.545 509.91 659.145 507.99C659.745 506.01 660.045 503.25 660.045 499.71C660.045 495.87 659.685 492.99 658.965 491.07C658.305 489.09 657.495 487.77 656.535 487.11C655.635 486.39 654.825 486.03 654.105 486.03C653.565 484.95 653.175 483.48 652.935 481.62C652.695 479.76 652.575 477.78 652.575 475.68C652.635 473.52 652.815 471.45 653.115 469.47C653.415 467.43 653.865 465.69 654.465 464.25C658.905 464.43 662.895 464.46 666.435 464.34C670.035 464.22 673.605 464.04 677.145 463.8C680.745 463.56 684.645 463.35 688.845 463.17C693.105 462.93 698.115 462.81 703.875 462.81C712.335 462.81 719.535 463.56 725.475 465.06C731.475 466.5 736.065 469.08 739.245 472.8C742.425 476.52 743.985 481.8 743.925 488.64C743.925 492.12 743.355 495.27 742.215 498.09C741.135 500.85 739.545 503.19 737.445 505.11C738.645 507.51 740.025 509.43 741.585 510.87C743.145 512.31 744.615 513.36 745.995 514.02C746.415 515.28 746.685 516.87 746.805 518.79C746.985 520.71 747.045 522.72 746.985 524.82C746.985 526.86 746.835 528.84 746.535 530.76C746.235 532.68 745.845 534.27 745.365 535.53C744.045 535.35 742.545 535.14 740.865 534.9C739.245 534.72 737.295 534.54 735.015 534.36C732.735 534.18 729.915 534.09 726.555 534.09C722.055 534.09 718.335 534.18 715.395 534.36C712.515 534.54 710.085 534.72 708.105 534.9C706.185 535.14 704.445 535.35 702.885 535.53C703.545 530.67 703.845 526.41 703.785 522.75C703.785 519.09 703.275 515.88 702.255 513.12C701.235 510.36 699.495 507.9 697.035 505.74V514.02L700.275 514.11C700.815 516.15 701.115 518.52 701.175 521.22C701.295 523.86 701.205 526.47 700.905 529.05C700.665 531.57 700.245 533.7 699.645 535.44C697.125 535.2 693.825 534.9 689.745 534.54C685.665 534.18 681.225 534.03 676.425 534.09C672.225 534.15 668.205 534.33 664.365 534.63C660.525 534.99 657.375 535.29 654.915 535.53ZM696.675 496.11H702.165V489.9H696.675V496.11ZM769.609 535.53C768.949 533.79 768.469 531.63 768.169 529.05C767.929 526.47 767.869 523.92 767.989 521.4C768.109 518.82 768.439 516.72 768.979 515.1C770.359 515.4 771.739 515.64 773.119 515.82C774.499 516 775.909 516.15 777.349 516.27L777.619 513.75C773.899 513.51 770.389 512.85 767.089 511.77C763.849 510.63 761.089 508.77 758.809 506.19C756.529 503.61 754.939 499.98 754.039 495.3C753.559 492.66 752.659 490.47 751.339 488.73C750.079 486.99 748.459 486.09 746.479 486.03C745.939 484.95 745.549 483.48 745.309 481.62C745.069 479.76 744.949 477.78 744.949 475.68C745.009 473.52 745.189 471.45 745.489 469.47C745.789 467.43 746.239 465.69 746.839 464.25C749.299 464.49 752.779 464.76 757.279 465.06C761.839 465.36 766.909 465.51 772.489 465.51C776.569 465.51 780.289 465.36 783.649 465.06C787.069 464.76 790.009 464.49 792.469 464.25C792.109 466.11 791.779 468.3 791.479 470.82C791.239 473.28 791.239 475.83 791.479 478.47C791.779 481.05 792.529 483.54 793.729 485.94C794.929 488.28 796.789 490.29 799.309 491.97L800.839 489.81C798.319 488.13 796.519 486 795.439 483.42C794.419 480.78 793.939 477.84 793.999 474.6C794.059 471.3 794.479 467.85 795.259 464.25C797.719 464.55 800.959 464.85 804.979 465.15C808.999 465.39 814.009 465.51 820.009 465.51C821.929 465.51 824.149 465.45 826.669 465.33C829.189 465.15 831.679 464.97 834.139 464.79C836.599 464.55 838.639 464.37 840.259 464.25C840.859 465.69 841.309 467.43 841.609 469.47C841.909 471.45 842.059 473.52 842.059 475.68C842.119 477.78 842.029 479.76 841.789 481.62C841.549 483.48 841.159 484.95 840.619 486.03C839.119 485.85 837.859 486.3 836.839 487.38C835.879 488.4 835.129 489.63 834.589 491.07C834.049 492.51 833.659 493.74 833.419 494.76C832.039 500.7 829.579 505.11 826.039 507.99C822.559 510.81 818.389 512.73 813.529 513.75L814.249 516.18C815.689 515.88 817.039 515.52 818.299 515.1C818.719 516.12 818.989 517.5 819.109 519.24C819.289 520.98 819.349 522.87 819.289 524.91C819.289 526.95 819.139 528.93 818.839 530.85C818.539 532.71 818.149 534.27 817.669 535.53C815.029 535.23 811.669 534.9 807.589 534.54C803.569 534.24 798.649 534.09 792.829 534.09C788.809 534.09 785.389 534.15 782.569 534.27C779.809 534.45 777.409 534.66 775.369 534.9C773.329 535.14 771.409 535.35 769.609 535.53ZM845.902 535.53C845.362 534.27 844.942 532.68 844.642 530.76C844.342 528.84 844.162 526.86 844.102 524.82C844.042 522.72 844.102 520.71 844.282 518.79C844.522 516.87 844.852 515.28 845.272 514.02C846.172 513.66 847.042 513.06 847.882 512.22C848.782 511.32 849.532 509.91 850.132 507.99C850.732 506.01 851.032 503.25 851.032 499.71C851.032 495.87 850.672 492.99 849.952 491.07C849.292 489.09 848.482 487.77 847.522 487.11C846.622 486.39 845.812 486.03 845.092 486.03C844.552 484.95 844.162 483.48 843.922 481.62C843.682 479.76 843.562 477.78 843.562 475.68C843.622 473.52 843.802 471.45 844.102 469.47C844.402 467.43 844.852 465.69 845.452 464.25C849.892 464.43 853.882 464.46 857.422 464.34C861.022 464.22 864.592 464.04 868.132 463.8C871.732 463.56 875.632 463.35 879.832 463.17C884.092 462.93 889.102 462.81 894.862 462.81C903.322 462.81 910.462 463.56 916.282 465.06C922.102 466.5 926.512 469.17 929.512 473.07C932.572 476.91 934.102 482.4 934.102 489.54C934.102 495.72 932.932 500.67 930.592 504.39C928.312 508.11 925.012 510.81 920.692 512.49C916.372 514.11 911.182 514.92 905.122 514.92C901.282 514.92 898.222 514.62 895.942 514.02C893.662 513.36 891.562 511.92 889.642 509.7L887.752 511.41C889.312 513.27 891.202 514.71 893.422 515.73C895.642 516.69 898.402 517.23 901.702 517.35C902.242 519.03 902.572 520.95 902.692 523.11C902.872 525.27 902.812 527.43 902.512 529.59C902.272 531.75 901.822 533.7 901.162 535.44C898.222 535.2 894.142 534.9 888.922 534.54C883.762 534.18 877.852 534.03 871.192 534.09C867.832 534.09 864.532 534.18 861.292 534.36C858.052 534.54 855.082 534.72 852.382 534.9C849.742 535.14 847.582 535.35 845.902 535.53ZM887.752 495.84H893.242V489.81H887.752V495.84Z" fill="black"/>
<rect x="209.311" y="144.205" width="135.544" height="346.128" rx="50" transform="rotate(36.9243 209.311 144.205)" fill="black"/>
<rect x="357.845" y="521.165" width="135.544" height="346.128" rx="50" transform="rotate(127.09 357.845 521.165)" fill="black"/>
<rect x="644.877" y="485.538" width="135.544" height="346.128" rx="50" transform="rotate(-142.896 644.877 485.538)" fill="black"/>
<rect x="497.528" y="108.121" width="135.544" height="346.128" rx="50" transform="rotate(-52.7304 497.528 108.121)" fill="black"/>
<rect x="466.902" y="492.527" width="135.544" height="346.128" rx="50" transform="rotate(-168.982 466.902 492.527)" fill="black"/>
<rect x="572.377" y="546.75" width="135.544" height="509.69" rx="50" transform="rotate(-168.982 572.377 546.75)" fill="black"/>
<rect x="279.626" y="83.8389" width="135.544" height="496.425" rx="50" transform="rotate(11.3882 279.626 83.8389)" fill="black"/>
</svg>
